<svg xmlns="http://www.w3.org/2000/svg" xmlns:xlink="http://www.w3.org/1999/xlink" width="500" zoomAndPan="magnify" viewBox="0 0 375 374.999991" height="500" preserveAspectRatio="xMidYMid meet" version="1.0"><defs><clipPath id="7c0a4c2764"><path d="M 59.324219 61.238281 L 335 61.238281 L 335 341.667969 L 59.324219 341.667969 Z M 59.324219 61.238281 " clip-rule="nonzero"/></clipPath><clipPath id="24187f49cd"><path d="M 315 26.777344 L 354.632812 26.777344 L 354.632812 66.710938 L 315 66.710938 Z M 315 26.777344 " clip-rule="nonzero"/></clipPath></defs><path fill="#000000" d="M 92.140625 197.34375 C 74.046875 197.34375 59.328125 181.15625 59.328125 161.261719 C 59.328125 141.363281 74.046875 125.179688 92.140625 125.179688 C 95.765625 125.179688 98.703125 128.117188 98.703125 131.742188 C 98.703125 135.363281 95.765625 138.300781 92.140625 138.300781 C 81.289062 138.300781 72.457031 148.601562 72.457031 161.261719 C 72.457031 173.921875 81.289062 184.222656 92.140625 184.222656 C 95.765625 184.222656 98.703125 187.160156 98.703125 190.78125 C 98.703125 194.402344 95.765625 197.34375 92.140625 197.34375 Z M 92.140625 197.34375 " fill-opacity="1" fill-rule="nonzero"/><g clip-path="url(#7c0a4c2764)"><path fill="#000000" d="M 311.03125 157.980469 L 303.902344 157.980469 C 292.859375 157.980469 282.164062 161.21875 272.960938 167.347656 C 270.070312 169.265625 266.371094 169.761719 263.082031 168.671875 L 256.195312 166.367188 L 256.195312 129.613281 L 269.234375 124.402344 C 278.5 120.699219 289.003906 116.5 289.003906 98.941406 C 289.003906 87.933594 278.675781 72.699219 259.273438 72.699219 L 246.757812 72.699219 C 240.992188 64.617188 231.113281 60.269531 221.054688 61.722656 L 190.105469 66.140625 L 164.324219 66.140625 C 162.046875 66.140625 159.9375 67.320312 158.738281 69.25 C 157.539062 71.183594 157.433594 73.597656 158.449219 75.632812 C 158.730469 76.191406 165.011719 88.527344 177.601562 96.300781 C 178.0625 103.335938 180.011719 117.609375 187.9375 126.21875 C 175.65625 161.507812 138.046875 177.136719 119.863281 177.640625 C 96.398438 178.292969 77.234375 193.601562 73.261719 214.871094 C 71.46875 224.46875 72.625 233.996094 76.605469 242.628906 L 63.316406 267.0625 C 60.707031 271.859375 59.328125 277.277344 59.328125 282.742188 L 59.328125 314.3125 C 59.328125 328.902344 70.246094 340.902344 84.171875 341.632812 C 84.652344 341.648438 85.132812 341.667969 85.605469 341.667969 C 92.355469 341.667969 98.714844 339.132812 103.644531 334.460938 C 108.84375 329.527344 111.824219 322.589844 111.824219 315.425781 L 111.824219 297.5625 L 128.914062 269.097656 C 181.738281 266.492188 205.601562 244.621094 223.132812 228.546875 C 225.003906 226.832031 226.824219 225.167969 228.605469 223.589844 L 252.910156 223.589844 C 264.902344 223.589844 276.796875 219.625 286.386719 212.433594 C 293.71875 206.9375 302.804688 203.90625 311.972656 203.90625 C 318.449219 203.90625 324.65625 201.152344 329.007812 196.347656 C 333.351562 191.546875 335.472656 185.082031 334.832031 178.597656 C 333.660156 167.03125 323.214844 157.980469 311.03125 157.980469 Z M 311.03125 157.980469 " fill-opacity="1" fill-rule="nonzero"/></g><path fill="#ffffff" d="M 311.03125 151.421875 L 303.910156 151.421875 C 294.1875 151.421875 284.695312 154.296875 276.609375 159.683594 C 272.011719 162.75 266.253906 163.519531 261.011719 161.773438 L 249.632812 157.980469 L 249.632812 112.058594 L 266.796875 105.195312 C 275.859375 101.566406 282.445312 98.941406 282.445312 85.820312 C 282.445312 79.257812 275.882812 66.140625 259.273438 66.140625 L 243.070312 66.140625 C 239.15625 58.308594 230.652344 53.851562 221.980469 55.089844 L 190.570312 59.578125 L 164.324219 59.578125 C 164.324219 59.578125 170.886719 72.699219 184.007812 79.257812 C 184.007812 79.257812 184.046875 103.15625 195.480469 111.023438 C 184.03125 151.355469 142.230469 170.472656 120.054688 171.082031 C 100.808594 171.613281 83.253906 184.046875 79.722656 202.960938 C 77.898438 212.722656 79.730469 221.953125 84.027344 229.621094 L 69.085938 257.082031 C 66.988281 260.929688 65.890625 265.242188 65.890625 269.617188 L 65.890625 301.1875 C 65.890625 311.839844 73.871094 321.402344 84.519531 321.957031 C 95.875 322.546875 105.261719 313.523438 105.261719 302.304688 L 105.261719 282.625 L 124.953125 249.824219 L 124.644531 249.578125 C 185.519531 247.761719 206.785156 220.53125 226.144531 203.902344 L 252.910156 203.902344 C 263.566406 203.902344 273.925781 200.453125 282.445312 194.0625 C 290.964844 187.671875 301.324219 184.222656 311.972656 184.222656 C 321.589844 184.222656 329.277344 175.945312 328.292969 166.128906 C 327.4375 157.589844 319.617188 151.421875 311.03125 151.421875 Z M 311.03125 151.421875 " fill-opacity="1" fill-rule="nonzero"/><path fill="#000000" d="M 85.605469 328.546875 C 85.132812 328.546875 84.652344 328.53125 84.171875 328.503906 C 70.246094 327.777344 59.328125 315.777344 59.328125 301.1875 L 59.328125 269.617188 C 59.328125 264.152344 60.707031 258.730469 63.316406 253.941406 L 76.605469 229.507812 C 72.632812 220.875 71.46875 211.347656 73.261719 201.75 C 77.230469 180.476562 96.390625 165.160156 119.863281 164.519531 C 138.046875 164.019531 175.65625 148.386719 187.9375 113.097656 C 180.011719 104.492188 178.0625 90.214844 177.601562 83.179688 C 165.011719 75.402344 158.730469 63.074219 158.449219 62.511719 C 157.433594 60.476562 157.539062 58.0625 158.738281 56.128906 C 159.9375 54.199219 162.046875 53.019531 164.324219 53.019531 L 190.105469 53.019531 L 221.054688 48.601562 C 231.113281 47.148438 240.992188 51.5 246.757812 59.578125 L 259.273438 59.578125 C 278.675781 59.578125 289.003906 74.816406 289.003906 85.820312 C 289.003906 103.378906 278.5 107.578125 269.234375 111.285156 L 256.195312 116.5 L 256.195312 153.257812 L 263.085938 155.550781 C 266.382812 156.652344 270.070312 156.148438 272.964844 154.226562 C 282.164062 148.097656 292.863281 144.859375 303.910156 144.859375 L 311.042969 144.859375 C 323.214844 144.859375 333.660156 153.910156 334.832031 165.472656 C 335.476562 171.949219 333.351562 178.421875 329.007812 183.222656 C 324.65625 188.027344 318.449219 190.78125 311.972656 190.78125 C 302.804688 190.78125 293.71875 193.804688 286.386719 199.308594 C 276.796875 206.5 264.902344 210.460938 252.910156 210.460938 L 228.605469 210.460938 C 226.824219 212.042969 225.003906 213.710938 223.132812 215.421875 C 205.59375 231.496094 181.734375 253.367188 128.914062 255.96875 L 111.824219 284.441406 L 111.824219 302.304688 C 111.824219 309.46875 108.84375 316.410156 103.644531 321.339844 C 98.714844 326.011719 92.355469 328.546875 85.605469 328.546875 Z M 177.261719 66.140625 C 179.832031 68.773438 183.0625 71.449219 186.949219 73.386719 C 189.160156 74.492188 190.5625 76.765625 190.570312 79.242188 C 190.59375 84.5625 192.226562 100.824219 199.195312 105.621094 C 201.519531 107.21875 202.5625 110.109375 201.792969 112.820312 C 189.582031 155.839844 145.898438 176.929688 120.226562 177.640625 C 102.996094 178.121094 88.996094 189.023438 86.175781 204.164062 C 84.710938 211.953125 85.957031 219.640625 89.753906 226.402344 C 90.851562 228.371094 90.875 230.761719 89.796875 232.746094 L 74.851562 260.21875 C 73.277344 263.089844 72.457031 266.339844 72.457031 269.621094 L 72.457031 301.195312 C 72.457031 308.671875 78.023438 315.050781 84.867188 315.410156 C 88.40625 315.589844 91.96875 314.335938 94.609375 311.832031 C 97.246094 309.324219 98.703125 305.9375 98.703125 302.304688 L 98.703125 282.625 C 98.703125 281.4375 99.023438 280.269531 99.636719 279.242188 L 118.527344 247.78125 C 118.539062 247.730469 118.558594 247.671875 118.582031 247.613281 C 119.453125 245.003906 121.710938 243.097656 124.457031 243.011719 C 175.253906 241.507812 196.890625 221.679688 214.273438 205.746094 C 216.882812 203.339844 219.398438 201.050781 221.878906 198.917969 C 223.054688 197.902344 224.582031 197.34375 226.144531 197.34375 L 252.910156 197.34375 C 262.082031 197.34375 271.171875 194.320312 278.5 188.8125 C 288.09375 181.625 299.976562 177.660156 311.972656 177.660156 C 314.789062 177.660156 317.378906 176.511719 319.269531 174.417969 C 321.160156 172.335938 322.046875 169.628906 321.761719 166.785156 C 321.269531 161.84375 316.554688 157.980469 311.03125 157.980469 L 303.902344 157.980469 C 295.453125 157.980469 287.277344 160.453125 280.246094 165.144531 C 274.023438 169.296875 266.066406 170.363281 258.929688 167.996094 L 247.5625 164.203125 C 244.875 163.3125 243.070312 160.800781 243.070312 157.980469 L 243.070312 112.058594 C 243.070312 109.378906 244.703125 106.96875 247.199219 105.96875 L 264.355469 99.109375 C 273.210938 95.558594 275.882812 94.496094 275.882812 85.820312 C 275.882812 82.453125 271.789062 72.699219 259.273438 72.699219 L 243.070312 72.699219 C 240.582031 72.699219 238.3125 71.292969 237.195312 69.070312 C 234.539062 63.757812 228.84375 60.742188 222.902344 61.585938 L 191.507812 66.074219 C 191.195312 66.117188 190.882812 66.140625 190.570312 66.140625 Z M 177.261719 66.140625 " fill-opacity="1" fill-rule="nonzero"/><g clip-path="url(#24187f49cd)"><path fill="#000000" d="M 354.628906 46.457031 C 354.628906 47.75 354.5 49.027344 354.25 50.300781 C 353.996094 51.566406 353.625 52.792969 353.128906 53.992188 C 352.636719 55.183594 352.027344 56.316406 351.3125 57.394531 C 350.589844 58.46875 349.773438 59.460938 348.859375 60.375 C 347.945312 61.289062 346.953125 62.105469 345.878906 62.820312 C 344.800781 63.539062 343.667969 64.144531 342.472656 64.636719 C 341.28125 65.132812 340.046875 65.507812 338.78125 65.757812 C 337.511719 66.011719 336.234375 66.140625 334.941406 66.140625 C 333.648438 66.140625 332.367188 66.011719 331.097656 65.757812 C 329.832031 65.507812 328.601562 65.132812 327.40625 64.636719 C 326.210938 64.144531 325.078125 63.539062 324.003906 62.820312 C 322.925781 62.105469 321.933594 61.289062 321.019531 60.375 C 320.105469 59.460938 319.289062 58.46875 318.574219 57.394531 C 317.851562 56.316406 317.25 55.183594 316.753906 53.992188 C 316.257812 52.792969 315.882812 51.566406 315.632812 50.300781 C 315.378906 49.027344 315.253906 47.75 315.253906 46.457031 C 315.253906 45.164062 315.378906 43.882812 315.632812 42.617188 C 315.882812 41.351562 316.257812 40.117188 316.753906 38.925781 C 317.25 37.734375 317.851562 36.597656 318.574219 35.523438 C 319.289062 34.449219 320.105469 33.457031 321.019531 32.542969 C 321.933594 31.628906 322.925781 30.8125 324.003906 30.09375 C 325.078125 29.375 326.210938 28.769531 327.40625 28.273438 C 328.601562 27.78125 329.832031 27.410156 331.097656 27.15625 C 332.367188 26.902344 333.648438 26.777344 334.941406 26.777344 C 336.234375 26.777344 337.511719 26.902344 338.78125 27.15625 C 340.046875 27.410156 341.28125 27.78125 342.472656 28.273438 C 343.667969 28.769531 344.800781 29.375 345.878906 30.09375 C 346.953125 30.8125 347.945312 31.628906 348.859375 32.542969 C 349.773438 33.457031 350.589844 34.449219 351.3125 35.523438 C 352.027344 36.597656 352.636719 37.734375 353.128906 38.925781 C 353.625 40.117188 353.996094 41.351562 354.25 42.617188 C 354.5 43.882812 354.628906 45.164062 354.628906 46.457031 Z M 354.628906 46.457031 " fill-opacity="1" fill-rule="nonzero"/></g><path fill="#000000" d="M 275.882812 85.820312 L 289.003906 85.820312 L 289.003906 98.941406 L 275.882812 98.941406 Z M 275.882812 85.820312 " fill-opacity="1" fill-rule="nonzero"/><path fill="#000000" d="M 157.757812 59.578125 L 170.886719 59.578125 L 170.886719 72.699219 L 157.757812 72.699219 Z M 157.757812 59.578125 " fill-opacity="1" fill-rule="nonzero"/><path fill="#000000" d="M 72.457031 210.460938 L 85.578125 210.460938 L 85.578125 223.582031 L 72.457031 223.582031 Z M 72.457031 210.460938 " fill-opacity="1" fill-rule="nonzero"/><path fill="#000000" d="M 327.558594 167.820312 L 334.941406 167.820312 L 334.941406 180.941406 L 327.558594 180.941406 Z M 327.558594 167.820312 " fill-opacity="1" fill-rule="nonzero"/></svg>